# xmcd
#
# Track frame offsets: 
#        150
#        26775
#        48750
#        76168
#        99150
#        127310
#        161850
#        180375
#        197222
#        226995
#        252395
#
# Disc length: 3607 seconds
#
# Revision: 0
# Processed by: cddbd v1.5.1PL0 Copyright (c) Steve Scherf et al.
# Submitted via: ExactAudioCopy v0.95b1
#
DISCID=8c0e150b
DTITLE=Magic Slim - Vol. 2 - Let Me Love You (Live)
DYEAR=1976
DGENRE=Blues
TTITLE0=That's All Right
TTITLE1=Josephine's
TTITLE2=As The Years Go Passing By
TTITLE3=Everything Gonna Be Alright
TTITLE4=Let Me Love You
TTITLE5=The Things I Used To Do
TTITLE6=That Ain't Right
TTITLE7=Honest I Do
TTITLE8=Nineteen Years Old
TTITLE9=Mary Lou
TTITLE10=Please Love Me
EXTD=
EXTT0=
EXTT1=
EXTT2=
EXTT3=
EXTT4=
EXTT5=
EXTT6=
EXTT7=
EXTT8=
EXTT9=
EXTT10=
PLAYORDER=
